<?xml version="1.0" encoding="UTF-8"?>
<svg width="1200pt" height="1200pt" version="1.1" viewBox="0 0 1200 1200" xmlns="http://www.w3.org/2000/svg">
 <path d="m1140 596.4c-1.1992-136.8-52.801-273.6-158.4-378-102-102-237.6-158.4-381.6-158.4s-279.6 56.398-381.6 158.4c-104.4 104.4-157.2 241.2-158.4 378v3.6016 3.6016c1.1992 136.8 52.801 273.6 158.4 378 102 102 237.6 158.4 381.6 158.4s279.6-56.398 381.6-158.4c104.4-104.4 157.2-241.2 158.4-378v-3.6016-3.6016zm-181.2 321.6c-32.398-28.801-67.199-52.801-104.4-73.199 16.801-64.801 27.602-138 30-214.8h194.4c-6 103.2-46.801 205.2-120 288zm-837.6-288h194.4c2.3984 78 13.199 150 30 214.8-37.199 19.199-72 44.398-104.4 73.199-73.199-82.801-114-184.8-120-288zm120-348c32.398 28.801 67.199 52.801 104.4 73.199-17.996 64.801-27.598 136.8-29.996 214.8h-194.4c6-103.2 46.801-205.2 120-288zm328.8 75.602c-51.602-3.6016-103.2-14.398-152.4-34.801 36-105.6 90-180 152.4-198zm0 60v152.4h-194.4c2.3984-67.199 10.801-132 25.199-189.6 54 21.602 111.6 33.602 169.2 37.203zm0 212.4v152.4c-57.602 3.6016-115.2 15.602-169.2 37.199-14.398-57.602-22.801-122.4-25.199-189.6zm0 212.4v232.8c-62.398-18-116.4-93.602-152.4-198 49.199-20.398 100.8-31.199 152.4-34.801zm60 0c51.602 3.6016 103.2 14.398 152.4 34.801-36 105.6-90 180-152.4 198zm0-60v-152.4h194.4c-2.3984 67.199-10.801 132-25.199 189.6-54-21.602-111.6-33.602-169.2-37.203zm0-212.4v-152.4c57.602-3.6016 115.2-15.602 169.2-37.199 14.398 57.602 22.801 122.4 25.199 189.6zm0-212.4v-232.8c62.398 18 116.4 93.602 152.4 198-49.199 20.398-100.8 31.199-152.4 34.801zm126-211.2c58.801 20.398 112.8 51.602 160.8 93.602-25.199 21.602-51.602 40.801-79.199 56.398-21.602-60-49.203-111.6-81.602-150zm-392.4 150c-27.602-15.602-55.199-34.801-79.199-56.398 48-42 102-73.199 160.8-93.602-33.602 38.402-61.203 90-81.602 150zm0 607.2c21.602 60 49.199 110.4 80.398 150-58.801-20.398-112.8-51.602-160.8-93.602 25.199-21.602 51.602-40.801 80.402-56.398zm472.8 0c27.602 15.602 55.199 34.801 79.199 56.398-48 42-102 73.199-160.8 93.602 33.602-38.402 61.203-90 81.602-150zm48-333.6c-2.3984-78-12-150-30-214.8 37.199-19.199 72-44.398 104.4-73.199 73.199 82.801 112.8 184.8 120 288z"/>
</svg>
