<svg xmlns="http://www.w3.org/2000/svg" fill="none" viewBox="0 0 490 97"><path fill="#000" stroke="#000" stroke-linecap="round" stroke-width="3.567" d="M9.82 73.006V40.462h27.568v-2.96H9.819V4.96h35.196V2H2v73.964h43.015v-2.958H9.819ZM55.253 2 77.77 75.964h7.82L108.181 2h-2.958L84.206 71.104 63.073 2h-7.819Zm71.006 71.006V40.462h27.588v-2.96H126.26V4.96h35.177V2h-42.996v73.964h42.996v-2.958H126.26ZM198.111 2h-26.415v73.964h7.819V53.66h9.394c4.861.634 9.087 2.978 12.795 5.917 5.917 4.764 10.682 10.778 16.483 16.387 5.706 5.495 11.508 11.412 19.346 15.427 3.785 1.902 8.223 3.17 12.661 3.17 4.553 0 8.78-1.383 12.372-3.477l-1.153-2.767c-2.651.75-5.283 1.172-7.838 1.172-8.453 0-15.523-5.379-21.555-10.873-2.844-2.652-5.591-5.399-8.338-8.261-6.436-6.648-14.793-13.41-23.553-16.791 13.294-1.057 23.764-12.142 23.764-25.782C223.893 13.508 212.386 2 198.111 2Zm-18.596 48.72V4.96h13.621c12.698 0 22.938 10.24 22.938 22.823 0 12.68-10.24 22.939-22.938 22.939h-13.621ZM247.562 2h-8.761v73.964h2.94V9.915l24.514 66.05h8.779l20.614-64.782v64.781h7.8V2h-7.8L273.44 71.738 247.562 2Zm66.145 0 19.538 35.81v38.154h7.839V37.81L360.622 2h-2.844l-18.174 33.063L321.526 2h-7.819Zm57.174 0v2.959h23.553v71.005h7.915V4.96h23.573V2h-55.041Zm65.3 73.964H444V40.462h36.329v35.502h7.838V2h-7.838v35.503H444V2h-7.819v73.964Z"/></svg>