<svg xml:space="preserve" xmlns="http://www.w3.org/2000/svg" viewBox="407.552 264.192 468.992 266.24" style="max-height:500px" width="468.992" height="266.24"><rect transform="translate(640 512)" fill="none" height="1024" width="1280" ry="0" rx="0" y="-512" x="-640" paint-order="stroke" style="stroke:none;stroke-width:0;stroke-dasharray:none;stroke-linecap:butt;stroke-dashoffset:0;stroke-linejoin:miter;stroke-miterlimit:4;fill-opacity:0;fill-rule:nonzero;opacity:1"/><g paint-order="stroke"><path d="M767.6 493.7c-7.9-41.9-43.2-73-79.6-73-12.6 0-29.5 8.3-46.4 19.4l-41.1-32.6-.5-.4-.5.4-10.3 8.1-30.8 24.5-26.5 21.1-7.7 6.1-10.1 8 23.8 22 20.7-17.2c1 .8 2 1.6 3.1 2.5 2 1.7 4.1 3.3 6 5l25.4-21.7c-2.8-2.3-5.8-4.7-8.9-7.1l15.8-13.1 15.8 13.1 25.6 21.3 7.2 6 13.5 11.3 23.8-22-17.8-14.1c16.2-9.8 22.7-10 23.1-10 21.2 0 41.2 18.6 44.9 42.5 3.9 25.3-11.9 47-35.3 47-.6 0-15.9-.4-61.1-35.2l-1.2-.9-25.5 23.6c28.7 24.2 67.9 52.7 92.1 52.7 43.6 0 71.1-41.1 62.5-87.3z" transform="translate(-129.977 -250.133) scale(1.28378)" style="stroke:none;stroke-width:1;stroke-dasharray:none;stroke-linecap:butt;stroke-dashoffset:0;stroke-linejoin:miter;stroke-miterlimit:4;fill-rule:nonzero;opacity:1"/><path d="m596.7 520 18.5-17.1 9.8-9.1h-.1c.5-.5 1.1-.9 1.6-1.4l.2-.1c3.4-2.9 7-6 10.7-8.9l-13.2-11-12.4-10.3c-3.8 3-7.5 6-10.9 8.9L575 493.7c-4.6 3.8-9.6 7.8-14.9 11.8-45.1 34.7-60.4 35.2-61.1 35.2-23.4 0-39.1-21.7-35.3-47 3.7-24 23.7-42.5 44.9-42.5.3 0 5.8.1 18.7 7.4l11-8.7 15.8-12.5c-15.4-9.6-30.5-16.6-42.2-16.6-36.4 0-71.8 31.2-79.6 73-8.7 46.2 18.9 87.3 62.4 87.3 27.2-.1 73-35.7 102-61.1z" transform="translate(-129.977 -250.133) scale(1.28378)" style="stroke:none;stroke-width:1;stroke-dasharray:none;stroke-linecap:butt;stroke-dashoffset:0;stroke-linejoin:miter;stroke-miterlimit:4;fill-rule:nonzero;opacity:1"/><path transform="translate(640.29 477.897) scale(1.28378)" d="m0-26.4-.6.5L-57 26.4H57L.5-25.9z" style="stroke:none;stroke-width:1;stroke-dasharray:none;stroke-linecap:butt;stroke-dashoffset:0;stroke-linejoin:miter;stroke-miterlimit:4;fill-rule:nonzero;opacity:1"/></g></svg>