<svg width="25" height="25" viewBox="0 0 25 25" fill="none" xmlns="http://www.w3.org/2000/svg">
<path d="M0 24.8614C0 24.4589 0.115011 23.5657 0.251601 22.9068C1.03107 19.148 3.62558 15.9514 7.16331 14.3919C8.34531 13.8709 9.59093 13.5503 10.9336 13.4216C11.4643 13.3708 12.5524 13.3708 13.0831 13.4216C15.3491 13.6387 17.3983 14.4213 19.186 15.7521C21.5318 17.4987 23.177 20.0693 23.7655 22.9067C23.9021 23.5656 24.0171 24.4588 24.0171 24.8613V25.0004H22.4098L22.3943 24.7464C22.3637 24.2457 22.3205 23.8867 22.2417 23.4765C22.1976 23.2473 22.1572 23.0261 22.1517 22.9848C22.1246 22.7799 21.853 21.9102 21.6829 21.4838C21.4831 20.983 21.1579 20.3111 21.0043 20.0818C20.9786 20.0434 20.9383 19.9769 20.9146 19.9338C20.6276 19.4119 20.0017 18.5971 19.4463 18.0225C18.8716 17.4279 17.9457 16.7017 17.3355 16.3667C17.3068 16.351 17.252 16.317 17.2136 16.2913C16.9867 16.1386 16.3135 15.8127 15.8117 15.6126C15.3852 15.4424 14.5155 15.1708 14.3106 15.1437C14.2694 15.1383 14.0481 15.0976 13.8189 15.0533C13.2361 14.9406 12.8101 14.9065 11.9825 14.9065C11.1548 14.9065 10.7289 14.9405 10.1461 15.0533C9.91683 15.0976 9.69561 15.1383 9.65439 15.1437C9.44944 15.1709 8.57977 15.4425 8.15331 15.6126C7.65256 15.8123 6.98061 16.1376 6.75135 16.2911C6.71297 16.3168 6.64642 16.3572 6.60339 16.3808C6.08147 16.6678 5.2667 17.2938 4.69204 17.8492C4.09747 18.4239 3.37123 19.3497 3.03628 19.96C3.02052 19.9887 2.98653 20.0434 2.96082 20.0818C2.8082 20.3087 2.48229 20.982 2.28212 21.4838C2.11193 21.9102 1.84031 22.7799 1.81329 22.9849C1.80786 23.0261 1.76741 23.2473 1.72335 23.4765C1.64452 23.8867 1.60136 24.2457 1.57073 24.7464L1.55522 25.0004H0.000129225V24.8613L0 24.8614ZM11.4875 11.6344C10.6337 11.5595 9.67464 11.2384 8.93703 10.7808C8.19656 10.3212 7.51555 9.64022 7.05605 8.89979C6.42518 7.88306 6.10562 6.59831 6.19517 5.43848C6.3072 3.98858 6.88535 2.71895 7.89215 1.71218C8.89895 0.70541 10.1687 0.127245 11.6184 0.0151983C12.7782 -0.0743532 14.0631 0.245217 15.0798 0.876077C15.8202 1.33561 16.5012 2.01663 16.9607 2.75706C17.1733 3.09975 17.4134 3.61575 17.5406 4.0037C18.142 5.83777 17.8115 7.80112 16.6378 9.36885C16.398 9.6892 15.8691 10.2181 15.5487 10.458C14.3596 11.3482 12.9329 11.7616 11.4873 11.6345L11.4875 11.6344ZM12.8263 10.0739C13.4294 9.94689 14.0442 9.68303 14.5088 9.35182C14.825 9.12632 15.2804 8.67093 15.5059 8.35471C15.8388 7.88783 16.098 7.2824 16.2322 6.65888C16.2816 6.42874 16.2903 6.30895 16.2903 5.85448C16.2903 5.4 16.2816 5.28021 16.2322 5.05007C16.098 4.42642 15.8388 3.82102 15.5059 3.35424C15.2804 3.03803 14.825 2.58265 14.5088 2.35714C14.0419 2.02427 13.4365 1.76504 12.813 1.6309C12.5828 1.5814 12.463 1.57275 12.0086 1.57275C11.5541 1.57275 11.4343 1.5814 11.2042 1.6309C10.5805 1.76503 9.97512 2.02427 9.50834 2.35714C9.19213 2.58263 8.73675 3.03802 8.51124 3.35424C8.17837 3.82112 7.91914 4.42655 7.785 5.05007C7.7355 5.28021 7.72685 5.4 7.72685 5.85448C7.72685 6.30895 7.73551 6.42874 7.785 6.65888C7.87546 7.07952 7.98633 7.4009 8.16802 7.76907C8.3846 8.20792 8.61875 8.53318 8.97438 8.88868C9.33 9.2443 9.65513 9.47845 10.094 9.69504C10.5513 9.92066 11.0276 10.0665 11.5034 10.1268C11.8045 10.1649 12.533 10.1358 12.8263 10.0741L12.8263 10.0739Z" fill="#383954"/>
</svg>
